<svg width="163" height="40" viewBox="0 0 163 40" fill="none" xmlns="http://www.w3.org/2000/svg">
<rect width="162.274" height="40" fill="#D81B1B"/>
<path d="M24.85 16.5601C24.77 16.7001 24.6833 16.8034 24.59 16.8701C24.5033 16.9301 24.3933 16.9601 24.26 16.9601C24.12 16.9601 23.9667 16.9101 23.8 16.8101C23.64 16.7034 23.4467 16.5867 23.22 16.4601C22.9933 16.3334 22.7267 16.2201 22.42 16.1201C22.12 16.0134 21.7633 15.9601 21.35 15.9601C20.9767 15.9601 20.65 16.0067 20.37 16.1001C20.09 16.1867 19.8533 16.3101 19.66 16.4701C19.4733 16.6301 19.3333 16.8234 19.24 17.0501C19.1467 17.2701 19.1 17.5134 19.1 17.7801C19.1 18.1201 19.1933 18.4034 19.38 18.6301C19.5733 18.8567 19.8267 19.0501 20.14 19.2101C20.4533 19.3701 20.81 19.5134 21.21 19.6401C21.61 19.7667 22.02 19.9034 22.44 20.0501C22.86 20.1901 23.27 20.3567 23.67 20.5501C24.07 20.7367 24.4267 20.9767 24.74 21.2701C25.0533 21.5567 25.3033 21.9101 25.49 22.3301C25.6833 22.7501 25.78 23.2601 25.78 23.8601C25.78 24.5134 25.6667 25.1267 25.44 25.7001C25.22 26.2667 24.8933 26.7634 24.46 27.1901C24.0333 27.6101 23.51 27.9434 22.89 28.1901C22.27 28.4301 21.56 28.5501 20.76 28.5501C20.3 28.5501 19.8467 28.5034 19.4 28.4101C18.9533 28.3234 18.5233 28.1967 18.11 28.0301C17.7033 27.8634 17.32 27.6634 16.96 27.4301C16.6 27.1967 16.28 26.9367 16 26.6501L16.79 25.3601C16.8567 25.2667 16.9433 25.1901 17.05 25.1301C17.1567 25.0634 17.27 25.0301 17.39 25.0301C17.5567 25.0301 17.7367 25.1001 17.93 25.2401C18.1233 25.3734 18.3533 25.5234 18.62 25.6901C18.8867 25.8567 19.1967 26.0101 19.55 26.1501C19.91 26.2834 20.34 26.3501 20.84 26.3501C21.6067 26.3501 22.2 26.1701 22.62 25.8101C23.04 25.4434 23.25 24.9201 23.25 24.2401C23.25 23.8601 23.1533 23.5501 22.96 23.3101C22.7733 23.0701 22.5233 22.8701 22.21 22.7101C21.8967 22.5434 21.54 22.4034 21.14 22.2901C20.74 22.1767 20.3333 22.0534 19.92 21.9201C19.5067 21.7867 19.1 21.6267 18.7 21.4401C18.3 21.2534 17.9433 21.0101 17.63 20.7101C17.3167 20.4101 17.0633 20.0367 16.87 19.5901C16.6833 19.1367 16.59 18.5801 16.59 17.9201C16.59 17.3934 16.6933 16.8801 16.9 16.3801C17.1133 15.8801 17.42 15.4367 17.82 15.0501C18.22 14.6634 18.7133 14.3534 19.3 14.1201C19.8867 13.8867 20.56 13.7701 21.32 13.7701C22.1733 13.7701 22.96 13.9034 23.68 14.1701C24.4 14.4367 25.0133 14.8101 25.52 15.2901L24.85 16.5601Z" fill="white"/>
<path d="M30.2575 18.1301V28.3901H27.7775V18.1301H30.2575ZM30.5975 15.1401C30.5975 15.3534 30.5542 15.5534 30.4675 15.7401C30.3808 15.9267 30.2642 16.0901 30.1175 16.2301C29.9775 16.3701 29.8108 16.4834 29.6175 16.5701C29.4242 16.6501 29.2175 16.6901 28.9975 16.6901C28.7842 16.6901 28.5808 16.6501 28.3875 16.5701C28.2008 16.4834 28.0375 16.3701 27.8975 16.2301C27.7575 16.0901 27.6442 15.9267 27.5575 15.7401C27.4775 15.5534 27.4375 15.3534 27.4375 15.1401C27.4375 14.9201 27.4775 14.7134 27.5575 14.5201C27.6442 14.3267 27.7575 14.1601 27.8975 14.0201C28.0375 13.8801 28.2008 13.7701 28.3875 13.6901C28.5808 13.6034 28.7842 13.5601 28.9975 13.5601C29.2175 13.5601 29.4242 13.6034 29.6175 13.6901C29.8108 13.7701 29.9775 13.8801 30.1175 14.0201C30.2642 14.1601 30.3808 14.3267 30.4675 14.5201C30.5542 14.7134 30.5975 14.9201 30.5975 15.1401Z" fill="white"/>
<path d="M36.5256 23.0101C36.8323 23.0101 37.099 22.9701 37.3256 22.8901C37.5523 22.8034 37.739 22.6867 37.8856 22.5401C38.039 22.3934 38.1523 22.2167 38.2256 22.0101C38.3056 21.8034 38.3456 21.5767 38.3456 21.3301C38.3456 20.8234 38.1923 20.4234 37.8856 20.1301C37.5856 19.8301 37.1323 19.6801 36.5256 19.6801C35.919 19.6801 35.4623 19.8301 35.1556 20.1301C34.8556 20.4234 34.7056 20.8234 34.7056 21.3301C34.7056 21.5701 34.7423 21.7934 34.8156 22.0001C34.8956 22.2067 35.009 22.3867 35.1556 22.5401C35.309 22.6867 35.499 22.8034 35.7256 22.8901C35.959 22.9701 36.2256 23.0101 36.5256 23.0101ZM39.3156 28.8501C39.3156 28.6501 39.2556 28.4867 39.1356 28.3601C39.0156 28.2334 38.8523 28.1367 38.6456 28.0701C38.439 27.9967 38.1956 27.9434 37.9156 27.9101C37.6423 27.8767 37.349 27.8534 37.0356 27.8401C36.729 27.8201 36.409 27.8034 36.0756 27.7901C35.749 27.7767 35.429 27.7501 35.1156 27.7101C34.8423 27.8634 34.619 28.0434 34.4456 28.2501C34.279 28.4567 34.1956 28.6967 34.1956 28.9701C34.1956 29.1501 34.239 29.3167 34.3256 29.4701C34.419 29.6301 34.5623 29.7667 34.7556 29.8801C34.9556 29.9934 35.2123 30.0801 35.5256 30.1401C35.839 30.2067 36.2223 30.2401 36.6756 30.2401C37.1356 30.2401 37.5323 30.2034 37.8656 30.1301C38.199 30.0634 38.4723 29.9667 38.6856 29.8401C38.9056 29.7201 39.0656 29.5734 39.1656 29.4001C39.2656 29.2334 39.3156 29.0501 39.3156 28.8501ZM41.7756 18.4801V19.4001C41.7756 19.6934 41.599 19.8734 41.2456 19.9401L40.3256 20.1101C40.4656 20.4634 40.5356 20.8501 40.5356 21.2701C40.5356 21.7767 40.4323 22.2367 40.2256 22.6501C40.0256 23.0567 39.7456 23.4034 39.3856 23.6901C39.0256 23.9767 38.599 24.2001 38.1056 24.3601C37.619 24.5134 37.0923 24.5901 36.5256 24.5901C36.3256 24.5901 36.1323 24.5801 35.9456 24.5601C35.759 24.5401 35.5756 24.5134 35.3956 24.4801C35.0756 24.6734 34.9156 24.8901 34.9156 25.1301C34.9156 25.3367 35.009 25.4901 35.1956 25.5901C35.389 25.6834 35.6423 25.7501 35.9556 25.7901C36.269 25.8301 36.6256 25.8567 37.0256 25.8701C37.4256 25.8767 37.8356 25.8967 38.2556 25.9301C38.6756 25.9634 39.0856 26.0234 39.4856 26.1101C39.8856 26.1901 40.2423 26.3201 40.5556 26.5001C40.869 26.6801 41.119 26.9267 41.3056 27.2401C41.499 27.5467 41.5956 27.9434 41.5956 28.4301C41.5956 28.8834 41.4823 29.3234 41.2556 29.7501C41.0356 30.1767 40.7123 30.5567 40.2856 30.8901C39.8656 31.2234 39.3456 31.4901 38.7256 31.6901C38.1123 31.8967 37.4123 32.0001 36.6256 32.0001C35.8523 32.0001 35.179 31.9234 34.6056 31.7701C34.0323 31.6234 33.5556 31.4234 33.1756 31.1701C32.7956 30.9234 32.5123 30.6367 32.3256 30.3101C32.139 29.9834 32.0456 29.6434 32.0456 29.2901C32.0456 28.8101 32.189 28.4101 32.4756 28.0901C32.769 27.7634 33.169 27.5034 33.6756 27.3101C33.4023 27.1701 33.1856 26.9834 33.0256 26.7501C32.8656 26.5167 32.7856 26.2101 32.7856 25.8301C32.7856 25.6767 32.8123 25.5201 32.8656 25.3601C32.9256 25.1934 33.009 25.0301 33.1156 24.8701C33.229 24.7101 33.369 24.5601 33.5356 24.4201C33.7023 24.2734 33.899 24.1434 34.1256 24.0301C33.6056 23.7501 33.1956 23.3767 32.8956 22.9101C32.6023 22.4434 32.4556 21.8967 32.4556 21.2701C32.4556 20.7634 32.5556 20.3067 32.7556 19.9001C32.9623 19.4867 33.2456 19.1367 33.6056 18.8501C33.9723 18.5567 34.4023 18.3334 34.8956 18.1801C35.3956 18.0267 35.939 17.9501 36.5256 17.9501C36.9656 17.9501 37.379 17.9967 37.7656 18.0901C38.1523 18.1767 38.5056 18.3067 38.8256 18.4801H41.7756Z" fill="white"/>
<path d="M45.652 19.3901C45.8587 19.1834 46.0754 18.9934 46.302 18.8201C46.5354 18.6401 46.7787 18.4901 47.032 18.3701C47.292 18.2434 47.5687 18.1467 47.862 18.0801C48.1554 18.0067 48.4754 17.9701 48.822 17.9701C49.382 17.9701 49.8787 18.0667 50.312 18.2601C50.7454 18.4467 51.1054 18.7134 51.392 19.0601C51.6854 19.4001 51.9054 19.8101 52.052 20.2901C52.2054 20.7634 52.282 21.2867 52.282 21.8601V28.3901H49.812V21.8601C49.812 21.2334 49.6687 20.7501 49.382 20.4101C49.0954 20.0634 48.6587 19.8901 48.072 19.8901C47.6454 19.8901 47.2454 19.9867 46.872 20.1801C46.4987 20.3734 46.1454 20.6367 45.812 20.9701V28.3901H43.342V18.1301H44.852C45.172 18.1301 45.382 18.2801 45.482 18.5801L45.652 19.3901Z" fill="white"/>
<path d="M72.0744 13.9301V28.3901H69.3744V22.0701H62.5844V28.3901H59.8844V13.9301H62.5844V20.1501H69.3744V13.9301H72.0744Z" fill="white"/>
<path d="M81.202 22.0801C81.202 21.7601 81.1554 21.4601 81.062 21.1801C80.9754 20.8934 80.842 20.6434 80.662 20.4301C80.482 20.2167 80.252 20.0501 79.972 19.9301C79.6987 19.8034 79.3787 19.7401 79.012 19.7401C78.2987 19.7401 77.7354 19.9434 77.322 20.3501C76.9154 20.7567 76.6554 21.3334 76.542 22.0801H81.202ZM76.492 23.5701C76.532 24.0967 76.6254 24.5534 76.772 24.9401C76.9187 25.3201 77.112 25.6367 77.352 25.8901C77.592 26.1367 77.8754 26.3234 78.202 26.4501C78.5354 26.5701 78.902 26.6301 79.302 26.6301C79.702 26.6301 80.0454 26.5834 80.332 26.4901C80.6254 26.3967 80.8787 26.2934 81.092 26.1801C81.312 26.0667 81.502 25.9634 81.662 25.8701C81.8287 25.7767 81.9887 25.7301 82.142 25.7301C82.3487 25.7301 82.502 25.8067 82.602 25.9601L83.312 26.8601C83.0387 27.1801 82.732 27.4501 82.392 27.6701C82.052 27.8834 81.6954 28.0567 81.322 28.1901C80.9554 28.3167 80.5787 28.4067 80.192 28.4601C79.812 28.5134 79.442 28.5401 79.082 28.5401C78.3687 28.5401 77.7054 28.4234 77.092 28.1901C76.4787 27.9501 75.9454 27.6001 75.492 27.1401C75.0387 26.6734 74.682 26.1001 74.422 25.4201C74.162 24.7334 74.032 23.9401 74.032 23.0401C74.032 22.3401 74.1454 21.6834 74.372 21.0701C74.5987 20.4501 74.922 19.9134 75.342 19.4601C75.7687 19.0001 76.2854 18.6367 76.892 18.3701C77.5054 18.1034 78.1954 17.9701 78.962 17.9701C79.6087 17.9701 80.2054 18.0734 80.752 18.2801C81.2987 18.4867 81.7687 18.7901 82.162 19.1901C82.5554 19.5834 82.862 20.0701 83.082 20.6501C83.3087 21.2234 83.422 21.8801 83.422 22.6201C83.422 22.9934 83.382 23.2467 83.302 23.3801C83.222 23.5067 83.0687 23.5701 82.842 23.5701H76.492Z" fill="white"/>
<path d="M87.6056 19.9101C87.9256 19.2967 88.3056 18.8167 88.7456 18.4701C89.1856 18.1167 89.7056 17.9401 90.3056 17.9401C90.779 17.9401 91.159 18.0434 91.4456 18.2501L91.2856 20.1001C91.2523 20.2201 91.2023 20.3067 91.1356 20.3601C91.0756 20.4067 90.9923 20.4301 90.8856 20.4301C90.7856 20.4301 90.6356 20.4134 90.4356 20.3801C90.2423 20.3467 90.0523 20.3301 89.8656 20.3301C89.5923 20.3301 89.349 20.3701 89.1356 20.4501C88.9223 20.5301 88.729 20.6467 88.5556 20.8001C88.389 20.9467 88.239 21.1267 88.1056 21.3401C87.979 21.5534 87.859 21.7967 87.7456 22.0701V28.3901H85.2756V18.1301H86.7256C86.979 18.1301 87.1556 18.1767 87.2556 18.2701C87.3556 18.3567 87.4223 18.5167 87.4556 18.7501L87.6056 19.9101Z" fill="white"/>
<path d="M99.0536 22.0801C99.0536 21.7601 99.0069 21.4601 98.9136 21.1801C98.8269 20.8934 98.6936 20.6434 98.5136 20.4301C98.3336 20.2167 98.1036 20.0501 97.8236 19.9301C97.5503 19.8034 97.2303 19.7401 96.8636 19.7401C96.1503 19.7401 95.5869 19.9434 95.1736 20.3501C94.7669 20.7567 94.5069 21.3334 94.3936 22.0801H99.0536ZM94.3436 23.5701C94.3836 24.0967 94.4769 24.5534 94.6236 24.9401C94.7703 25.3201 94.9636 25.6367 95.2036 25.8901C95.4436 26.1367 95.7269 26.3234 96.0536 26.4501C96.3869 26.5701 96.7536 26.6301 97.1536 26.6301C97.5536 26.6301 97.8969 26.5834 98.1836 26.4901C98.4769 26.3967 98.7303 26.2934 98.9436 26.1801C99.1636 26.0667 99.3536 25.9634 99.5136 25.8701C99.6803 25.7767 99.8403 25.7301 99.9936 25.7301C100.2 25.7301 100.354 25.8067 100.454 25.9601L101.164 26.8601C100.89 27.1801 100.584 27.4501 100.244 27.6701C99.9036 27.8834 99.5469 28.0567 99.1736 28.1901C98.8069 28.3167 98.4303 28.4067 98.0436 28.4601C97.6636 28.5134 97.2936 28.5401 96.9336 28.5401C96.2203 28.5401 95.5569 28.4234 94.9436 28.1901C94.3303 27.9501 93.7969 27.6001 93.3436 27.1401C92.8903 26.6734 92.5336 26.1001 92.2736 25.4201C92.0136 24.7334 91.8836 23.9401 91.8836 23.0401C91.8836 22.3401 91.9969 21.6834 92.2236 21.0701C92.4503 20.4501 92.7736 19.9134 93.1936 19.4601C93.6203 19.0001 94.1369 18.6367 94.7436 18.3701C95.3569 18.1034 96.0469 17.9701 96.8136 17.9701C97.4603 17.9701 98.0569 18.0734 98.6036 18.2801C99.1503 18.4867 99.6203 18.7901 100.014 19.1901C100.407 19.5834 100.714 20.0701 100.934 20.6501C101.16 21.2234 101.274 21.8801 101.274 22.6201C101.274 22.9934 101.234 23.2467 101.154 23.3801C101.074 23.5067 100.92 23.5701 100.694 23.5701H94.3436Z" fill="white"/>
<path d="M127.796 23.99C126.251 24.1152 124.052 25.7109 122.953 26.2428C122.092 26.6496 121.319 26.9938 120.695 26.9938C120.012 26.9938 119.923 26.4931 120.042 25.3667C120.072 25.1164 120.398 22.8949 118.794 22.9888C118.022 23.0513 116.863 23.771 113.744 26.9312L114.992 23.7084C115.883 21.3304 113.387 18.9525 111.13 20.4856L109.496 21.6433C109.288 21.7685 109.199 22.0814 109.347 22.3317L109.852 23.1765C110.001 23.3955 110.298 23.4894 110.506 23.3329L112.229 22.1127C112.793 21.7372 113.447 22.3317 113.209 22.9575L110.298 30.6546C110.09 31.1552 110.387 32 111.189 32C111.427 32 111.664 31.9061 111.843 31.7184C113.09 30.4043 116.447 26.9938 118.111 25.5857C118.052 26.4931 118.052 27.4318 118.735 28.214C119.18 28.7459 119.834 28.9963 120.666 28.9963C121.735 28.9963 122.686 28.5582 123.726 28.0576C124.706 27.6195 126.667 26.1177 127.825 26.0238C128.093 25.9925 128.271 25.7735 128.271 25.5232V24.5219C128.301 24.2403 128.063 23.99 127.796 23.99Z" fill="white"/>
<path d="M139.785 10.9172L131.631 19.6139L131.279 23.1802C131.221 23.6495 131.602 24.0562 132.042 23.9936L135.385 23.6182L143.539 14.9214L139.785 10.9172ZM145.856 10.3228L144.096 8.44579C143.568 7.8514 142.659 7.8514 142.102 8.44579L140.459 10.1977L144.213 14.2019L145.856 12.4501C146.413 11.8557 146.413 10.8859 145.856 10.3228Z" fill="white"/>
</svg>
